HIERARCHY
ROOT Hips
{
	OFFSET 0.000000 0.000000 0.000000
	CHANNELS 6 Xposition Yposition Zposition Xrotation Yrotation Zrotation
	JOINT LeftUpLeg_virtual
	{
		OFFSET 0.000000 0.000000 0.000000
		CHANNELS 3 Xrotation Yrotation Zrotation
		JOINT LeftUpLeg
		{
			OFFSET 11.394100 -6.187798 -0.413800
			CHANNELS 3 Xrotation Yrotation Zrotation
			JOINT LeftLeg
			{
				OFFSET 0.430247 -32.302673 3.732800
				CHANNELS 3 Xrotation Yrotation Zrotation
				JOINT LeftFoot
				{
					OFFSET -0.430247 -48.264931 -6.423300
					CHANNELS 3 Xrotation Yrotation Zrotation
					JOINT LeftToeBase
					{
						OFFSET 4.230900 -16.068199 23.438400
						CHANNELS 3 Xrotation Yrotation Zrotation
						JOINT LeftToe_End
						{
							OFFSET 4.510700 0.695400 19.974600
							CHANNELS 3 Xrotation Yrotation Zrotation
							End Site
							{
								OFFSET 0 0 0
							}
						}
					}
				}
			}
		}
	}
	JOINT RightUpLeg_virtual
	{
		OFFSET 0.000000 0.000000 0.000000
		CHANNELS 3 Xrotation Yrotation Zrotation
		JOINT RightUpLeg
		{
			OFFSET -11.333700 -6.187798 -0.413800
			CHANNELS 3 Xrotation Yrotation Zrotation
			JOINT RightLeg
			{
				OFFSET -0.430392 -32.302628 3.733000
				CHANNELS 3 Xrotation Yrotation Zrotation
				JOINT RightFoot
				{
					OFFSET 0.430392 -48.264973 -6.423500
					CHANNELS 3 Xrotation Yrotation Zrotation
					JOINT RightToeBase
					{
						OFFSET -4.230900 -16.068199 23.438400
						CHANNELS 3 Xrotation Yrotation Zrotation
						JOINT RightToe_End
						{
							OFFSET -4.510700 0.695400 19.974600
							CHANNELS 3 Xrotation Yrotation Zrotation
							End Site
							{
								OFFSET 0 0 0
							}
						}
					}
				}
			}
		}
	}
	JOINT Spine_virtual
	{
		OFFSET 0.000000 0.000000 0.000000
		CHANNELS 3 Xrotation Yrotation Zrotation
		JOINT Spine
		{
			OFFSET -0.002400 12.777504 0.315300
			CHANNELS 3 Xrotation Yrotation Zrotation
			JOINT Spine1
			{
				OFFSET -0.002067 5.816869 0.032633
				CHANNELS 3 Xrotation Yrotation Zrotation
				JOINT Spine1_split
				{
					OFFSET -0.002067 5.816869 0.032633
					CHANNELS 3 Xrotation Yrotation Zrotation
					JOINT Spine2
					{
						OFFSET -0.002067 5.816869 0.032633
						CHANNELS 3 Xrotation Yrotation Zrotation
						JOINT Neck_virtual
						{
							OFFSET 0.000000 0.000000 0.000000
							CHANNELS 3 Xrotation Yrotation Zrotation
							JOINT Neck
							{
								OFFSET -0.003700 21.199493 -0.826900
								CHANNELS 3 Xrotation Yrotation Zrotation
								JOINT Head
								{
									OFFSET 0.000000 20.442200 4.834800
									CHANNELS 3 Xrotation Yrotation Zrotation
									JOINT HeadTop_End
									{
										OFFSET 0.000000 34.668396 4.968400
										CHANNELS 3 Xrotation Yrotation Zrotation
										End Site
										{
											OFFSET 0 0 0
										}
									}
								}
							}
						}
						JOINT LeftShoulder_virtual
						{
							OFFSET 0.000000 0.000000 0.000000
							CHANNELS 3 Xrotation Yrotation Zrotation
							JOINT LeftShoulder
							{
								OFFSET 3.288150 8.794197 -1.372250
								CHANNELS 3 Xrotation Yrotation Zrotation
								JOINT LeftShoulder_split
								{
									OFFSET 3.288150 8.794197 -1.372250
									CHANNELS 3 Xrotation Yrotation Zrotation
									JOINT LeftArm
									{
										OFFSET 11.953299 -2.279007 -0.146200
										CHANNELS 3 Xrotation Yrotation Zrotation
										JOINT LeftForeArm
										{
											OFFSET 18.448900 0.000000 0.000000
											CHANNELS 3 Xrotation Yrotation Zrotation
											JOINT LeftHand
											{
												OFFSET 29.527798 0.000000 0.000000
												CHANNELS 3 Xrotation Yrotation Zrotation
												End Site
												{
													OFFSET 0 0 0
												}
											}
										}
									}
								}
							}
						}
						JOINT RightShoulder_virtual
						{
							OFFSET 0.000000 0.000000 0.000000
							CHANNELS 3 Xrotation Yrotation Zrotation
							JOINT RightShoulder
							{
								OFFSET -3.249400 8.794197 -1.372250
								CHANNELS 3 Xrotation Yrotation Zrotation
								JOINT RightShoulder_split
								{
									OFFSET -3.249400 8.794197 -1.372250
									CHANNELS 3 Xrotation Yrotation Zrotation
									JOINT RightArm
									{
										OFFSET -11.953299 -2.279007 -0.146200
										CHANNELS 3 Xrotation Yrotation Zrotation
										JOINT RightForeArm
										{
											OFFSET -18.448900 0.000000 0.000000
											CHANNELS 3 Xrotation Yrotation Zrotation
											JOINT RightHand
											{
												OFFSET -29.527802 0.000000 0.000000
												CHANNELS 3 Xrotation Yrotation Zrotation
												End Site
												{
													OFFSET 0 0 0
												}
											}
										}
									}
								}
							}
						}
					}
				}
			}
		}
	}
}
MOTION
Frames: 6
Frame Time: 0.03333333
12.655673 88.804375 -19.675432 0.000000 0.000000 0.000000 12.239346 8.878638 1.354986 -13.627865 17.760964 17.588523 40.243895 -5.192437 0.709961 -5.262907 -5.851926 -11.144405 1.414287 -5.124594 4.919670 0.000000 0.000000 0.000000 10.050406 5.550832 2.008635 -58.552336 5.292567 -4.379635 56.294180 -0.909677 -1.748797 -1.343381 -2.123480 25.373516 9.057639 2.184256 -13.278501 0.000000 0.000000 0.000000 14.426562 9.988380 1.206704 -13.118190 -7.130811 -3.046851 5.173961 -5.325237 3.465905 0.029552 -0.374978 -0.010130 0.000000 0.000000 0.000000 3.622906 -3.622574 3.986139 10.142322 11.608807 5.526710 -6.604741 32.720902 1.924148 0.000000 0.000000 0.000000 7.599338 -4.583022 4.181688 7.444268 -9.176789 0.802789 4.422945 -6.172033 3.498811 -40.283103 1.470990 -21.219186 179.358882 -63.244137 178.630538 0.000000 0.000000 0.000000 7.133631 -4.618737 3.932971 -3.416555 -7.358210 21.236902 -1.478749 4.674915 -6.186403 -42.392413 -1.695211 31.286184 -156.574860 50.265018 172.712740 0.000000 0.000000 0.000000 
12.984308 90.535156 -21.340429 0.000000 0.000000 0.000000 13.535160 9.977961 -0.501888 -28.748037 11.568303 22.241954 55.043958 -3.584436 0.056039 7.053347 -5.289943 -7.703554 6.917494 -4.496983 -2.143515 0.000000 0.000000 0.000000 11.372743 6.849956 0.677919 -52.222684 3.296460 -3.661938 51.461722 0.077460 -2.850005 -4.939825 -1.560037 22.921307 3.429443 3.885062 -12.673643 0.000000 0.000000 0.000000 14.920599 9.281915 0.562670 -9.136543 -6.707910 -1.939905 4.617853 -5.457434 1.813453 -0.003955 -0.154170 -0.069773 0.000000 0.000000 0.000000 3.053794 -3.763137 2.499324 11.270603 11.307213 6.572401 -9.518806 30.915335 5.780387 0.000000 0.000000 0.000000 6.962059 -4.843249 3.093512 8.761020 -10.028819 9.751483 2.874908 -5.472246 1.368848 -51.206058 -1.626485 -11.900350 -170.820955 -66.947411 -174.587640 0.000000 0.000000 0.000000 6.110111 -4.720056 2.745776 -4.775462 -5.643304 13.049063 -1.292966 2.433065 -4.604547 -55.808369 1.216943 26.534148 -148.847581 55.029871 164.121127 0.000000 0.000000 0.000000 
13.056633 91.828262 -22.571276 0.000000 0.000000 0.000000 14.577452 9.784806 -1.340711 -41.950072 5.870920 23.759756 67.403182 -0.623366 -0.580868 16.489892 -2.733836 -3.649599 6.746148 -3.972938 -10.062713 0.000000 0.000000 0.000000 12.522939 8.020992 -0.277535 -44.165711 -0.465876 -3.092859 47.574382 -0.851595 -2.958098 -11.815944 -2.824730 17.309788 -3.776611 5.691392 -12.387912 0.000000 0.000000 0.000000 15.379971 8.241182 0.429879 -4.983765 -6.118616 -1.180164 4.153708 -5.688419 0.013101 -0.045436 0.095059 -0.056246 0.000000 0.000000 0.000000 2.849955 -3.981855 0.920997 12.240452 11.087209 7.116815 -12.868877 29.568555 8.535786 0.000000 0.000000 0.000000 6.384127 -5.265302 1.600180 9.825167 -9.299887 17.161093 1.849386 -4.636323 1.541982 -58.710100 -5.381346 -1.995674 -157.931855 -73.194411 -164.465614 0.000000 0.000000 0.000000 5.242010 -4.906774 1.392420 -6.051896 -3.407643 3.574135 0.573945 -0.217296 -2.980583 -65.033168 3.022127 21.162446 -134.626703 62.155562 148.166051 0.000000 0.000000 0.000000 
13.016367 92.954201 -23.560526 0.000000 0.000000 0.000000 15.173718 8.807859 -0.769488 -51.278509 3.363873 22.419966 74.412958 2.530687 -0.922448 20.681524 -0.376208 -0.345860 0.032276 -2.562570 -16.334389 0.000000 0.000000 0.000000 13.039221 7.863293 -0.004475 -39.309627 -4.293073 -3.503602 46.491394 -2.022746 -2.375612 -15.957120 -3.894929 12.144550 -6.173409 6.793288 -11.146473 0.000000 0.000000 0.000000 15.749609 6.742862 0.917459 -1.514737 -5.569349 -1.193408 3.825068 -5.900874 -1.448781 -0.065743 0.278869 -0.025743 0.000000 0.000000 0.000000 2.950364 -4.151584 -0.348366 12.904442 10.951126 7.078732 -16.615554 28.826916 9.938545 0.000000 0.000000 0.000000 5.911161 -5.661945 0.101438 10.230649 -7.610741 21.226787 1.050392 -4.661592 2.270480 -61.906922 -7.507697 6.054117 -139.730753 -79.185880 -148.184328 0.000000 0.000000 0.000000 4.682236 -5.056796 0.213421 -6.862215 -1.320800 -5.271512 3.448982 -1.646582 -0.956785 -68.561357 3.036179 17.260368 -112.707943 67.611660 123.881149 0.000000 0.000000 0.000000 
12.642760 94.004112 -24.227140 0.000000 0.000000 0.000000 15.749455 7.629477 0.884294 -57.245229 4.154655 19.697263 76.094892 4.150248 0.168279 21.385247 -0.784712 0.135187 -7.711323 -0.562461 -19.373155 0.000000 0.000000 0.000000 13.507111 6.746741 1.541712 -37.408280 -6.296669 -4.387814 46.123188 -1.675493 -1.904551 -17.383917 -3.923379 9.873849 -6.778161 7.608178 -9.900581 0.000000 0.000000 0.000000 16.244671 5.428455 1.774552 0.565776 -5.204342 -2.225327 3.677841 -5.948889 -2.188808 -0.008378 0.293284 -0.033094 0.000000 0.000000 0.000000 3.027388 -4.175890 -1.020452 13.159831 10.954191 6.424243 -20.181747 28.670112 10.010248 0.000000 0.000000 0.000000 5.362843 -5.790969 -1.037211 9.937212 -5.702954 20.296776 1.151461 -5.635447 2.846257 -60.982825 -6.835138 10.349561 -127.413340 -82.610154 -136.766096 0.000000 0.000000 0.000000 4.537789 -5.032681 -0.530915 -7.154782 -0.014137 -11.348912 6.227751 -0.522143 0.719384 -66.867190 1.204920 16.044797 -93.873396 69.564520 102.872102 0.000000 0.000000 0.000000 
11.990818 94.881874 -24.158979 0.000000 0.000000 0.000000 16.550119 5.377652 2.807659 -59.944049 7.536753 16.758516 72.287389 4.123992 2.276110 19.187680 -3.585101 -1.195134 -10.501547 0.240554 -18.258889 0.000000 0.000000 0.000000 14.694896 5.213411 3.234084 -35.086709 -5.758074 -4.523686 44.128247 0.285707 -1.903039 -18.304866 -3.296406 9.886452 -10.592039 8.622262 -9.321231 0.000000 0.000000 0.000000 16.554779 4.163411 2.379248 1.033277 -4.961853 -3.973879 3.657781 -5.714152 -1.996777 0.083160 0.320833 0.066740 0.000000 0.000000 0.000000 2.871283 -3.923406 -0.966691 12.897367 10.999513 5.150681 -22.697574 28.857488 8.907663 0.000000 0.000000 0.000000 4.918505 -5.534951 -1.494299 9.260755 -4.032385 14.438395 1.810765 -7.081539 2.692663 -56.111233 -3.788377 9.954430 -145.312193 -83.592862 -154.668445 0.000000 0.000000 0.000000 4.846804 -4.644447 -0.653000 -7.210524 0.145233 -13.404989 8.938439 2.764222 3.321951 -61.474592 -1.353445 18.234655 -90.399090 71.102925 97.979487 0.000000 0.000000 0.000000 
